<?xml version="1.0" standalone="no"?>
<!DOCTYPE svg PUBLIC "-//W3C//DTD SVG 20010904//EN"
 "http://www.w3.org/TR/2001/REC-SVG-20010904/DTD/svg10.dtd">
<svg version="1.0" xmlns="http://www.w3.org/2000/svg"
 width="199.000000pt" height="199.000000pt" viewBox="0 0 199.000000 199.000000"
 preserveAspectRatio="xMidYMid meet">
<metadata>
Created by potrace 1.11, written by Peter Selinger 2001-2013
</metadata>
<g transform="translate(0.000000,199.000000) scale(0.100000,-0.100000)"
fill="#000000" stroke="none">
<path d="M878 1975 c-2 -1 -36 -5 -76 -8 -41 -3 -75 -7 -77 -9 -3 -3 -65 -312
-79 -392 -3 -16 -10 -52 -16 -80 -12 -58 -17 -86 -26 -136 -4 -19 -8 -44 -11
-55 -14 -71 -36 -184 -39 -205 -5 -26 -64 -330 -90 -463 -9 -42 -17 -87 -19
-100 -3 -12 -25 -127 -50 -255 -25 -128 -45 -237 -45 -243 0 -6 47 -9 122 -7
l122 3 7 35 c4 19 10 52 13 73 4 22 13 69 21 105 12 58 47 237 61 312 47 257
66 333 92 360 161 163 394 290 508 277 58 -6 77 -25 77 -76 0 -125 -185 -281
-550 -465 l-72 -36 46 -47 c25 -27 125 -131 222 -233 98 -102 207 -216 243
-254 l65 -69 142 19 c77 10 141 22 141 27 0 4 -74 83 -164 175 -90 92 -205
210 -256 262 l-92 94 37 21 c329 184 500 380 498 570 -2 241 -269 323 -564
175 -65 -34 -182 -111 -221 -148 -16 -14 -28 -23 -28 -19 0 4 24 130 54 280
30 150 57 289 60 311 4 21 8 41 10 45 2 3 7 26 10 51 3 25 10 60 15 78 l10 32
-50 -1 c-27 -1 -50 -3 -51 -4z"/>
</g>
</svg>
